<mxfile host="app.diagrams.net" modified="2022-03-29T00:36:06.153Z" agent="5.0 (Windows NT 10.0; Win64; x64) AppleWebKit/537.36 (KHTML, like Gecko) Chrome/99.0.4844.82 Safari/537.36" etag="9Z9BxFOAY4I6fByNmlHR" version="17.2.4" type="github">
  <diagram id="voCnp6elKcKqAdhm_QXs" name="Page-1">
    <mxGraphModel dx="1185" dy="635" grid="1" gridSize="10" guides="1" tooltips="1" connect="1" arrows="1" fold="1" page="1" pageScale="1" pageWidth="827" pageHeight="1169" math="0" shadow="0">
      <root>
        <mxCell id="0" />
        <mxCell id="1" parent="0" />
        <mxCell id="SKfT4HgJWaICBLoS1D5a-16" value="" style="edgeStyle=none;rounded=0;orthogonalLoop=1;jettySize=auto;html=1;shadow=0;fillColor=#66FFFF;" edge="1" parent="1" source="SKfT4HgJWaICBLoS1D5a-9" target="SKfT4HgJWaICBLoS1D5a-15">
          <mxGeometry relative="1" as="geometry" />
        </mxCell>
        <mxCell id="SKfT4HgJWaICBLoS1D5a-18" value="" style="edgeStyle=none;rounded=0;orthogonalLoop=1;jettySize=auto;html=1;" edge="1" parent="1" source="SKfT4HgJWaICBLoS1D5a-9" target="SKfT4HgJWaICBLoS1D5a-17">
          <mxGeometry relative="1" as="geometry" />
        </mxCell>
        <mxCell id="SKfT4HgJWaICBLoS1D5a-9" value="A" style="ellipse;whiteSpace=wrap;html=1;aspect=fixed;" vertex="1" parent="1">
          <mxGeometry x="110" y="330" width="30" height="30" as="geometry" />
        </mxCell>
        <mxCell id="SKfT4HgJWaICBLoS1D5a-25" value="" style="edgeStyle=none;rounded=0;orthogonalLoop=1;jettySize=auto;html=1;shadow=0;fillColor=#66FFFF;" edge="1" parent="1" source="SKfT4HgJWaICBLoS1D5a-15" target="SKfT4HgJWaICBLoS1D5a-24">
          <mxGeometry relative="1" as="geometry" />
        </mxCell>
        <mxCell id="SKfT4HgJWaICBLoS1D5a-27" value="" style="edgeStyle=none;rounded=0;orthogonalLoop=1;jettySize=auto;html=1;" edge="1" parent="1" source="SKfT4HgJWaICBLoS1D5a-15" target="SKfT4HgJWaICBLoS1D5a-26">
          <mxGeometry relative="1" as="geometry" />
        </mxCell>
        <mxCell id="SKfT4HgJWaICBLoS1D5a-15" value="B" style="ellipse;whiteSpace=wrap;html=1;aspect=fixed;" vertex="1" parent="1">
          <mxGeometry x="230" y="270" width="30" height="30" as="geometry" />
        </mxCell>
        <mxCell id="SKfT4HgJWaICBLoS1D5a-29" value="" style="edgeStyle=none;rounded=0;orthogonalLoop=1;jettySize=auto;html=1;" edge="1" parent="1" source="SKfT4HgJWaICBLoS1D5a-17" target="SKfT4HgJWaICBLoS1D5a-28">
          <mxGeometry relative="1" as="geometry" />
        </mxCell>
        <mxCell id="SKfT4HgJWaICBLoS1D5a-31" value="" style="edgeStyle=none;rounded=0;orthogonalLoop=1;jettySize=auto;html=1;" edge="1" parent="1" source="SKfT4HgJWaICBLoS1D5a-17" target="SKfT4HgJWaICBLoS1D5a-30">
          <mxGeometry relative="1" as="geometry" />
        </mxCell>
        <mxCell id="SKfT4HgJWaICBLoS1D5a-33" value="" style="edgeStyle=none;rounded=0;orthogonalLoop=1;jettySize=auto;html=1;" edge="1" parent="1" source="SKfT4HgJWaICBLoS1D5a-17" target="SKfT4HgJWaICBLoS1D5a-32">
          <mxGeometry relative="1" as="geometry" />
        </mxCell>
        <mxCell id="SKfT4HgJWaICBLoS1D5a-17" value="C" style="ellipse;whiteSpace=wrap;html=1;aspect=fixed;" vertex="1" parent="1">
          <mxGeometry x="230" y="380" width="30" height="30" as="geometry" />
        </mxCell>
        <mxCell id="SKfT4HgJWaICBLoS1D5a-35" value="" style="edgeStyle=none;rounded=0;orthogonalLoop=1;jettySize=auto;html=1;shadow=0;fillColor=#66FFFF;" edge="1" parent="1" source="SKfT4HgJWaICBLoS1D5a-24" target="SKfT4HgJWaICBLoS1D5a-34">
          <mxGeometry relative="1" as="geometry" />
        </mxCell>
        <mxCell id="SKfT4HgJWaICBLoS1D5a-45" style="edgeStyle=none;rounded=0;orthogonalLoop=1;jettySize=auto;html=1;exitX=1;exitY=1;exitDx=0;exitDy=0;entryX=0;entryY=0;entryDx=0;entryDy=0;" edge="1" parent="1" source="SKfT4HgJWaICBLoS1D5a-24" target="SKfT4HgJWaICBLoS1D5a-37">
          <mxGeometry relative="1" as="geometry" />
        </mxCell>
        <mxCell id="SKfT4HgJWaICBLoS1D5a-24" value="D" style="ellipse;whiteSpace=wrap;html=1;aspect=fixed;" vertex="1" parent="1">
          <mxGeometry x="380" y="175" width="30" height="30" as="geometry" />
        </mxCell>
        <mxCell id="SKfT4HgJWaICBLoS1D5a-46" style="edgeStyle=none;rounded=0;orthogonalLoop=1;jettySize=auto;html=1;exitX=1;exitY=1;exitDx=0;exitDy=0;entryX=0;entryY=0;entryDx=0;entryDy=0;" edge="1" parent="1" source="SKfT4HgJWaICBLoS1D5a-26" target="SKfT4HgJWaICBLoS1D5a-39">
          <mxGeometry relative="1" as="geometry" />
        </mxCell>
        <mxCell id="SKfT4HgJWaICBLoS1D5a-26" value="E" style="ellipse;whiteSpace=wrap;html=1;aspect=fixed;" vertex="1" parent="1">
          <mxGeometry x="390" y="280" width="30" height="30" as="geometry" />
        </mxCell>
        <mxCell id="SKfT4HgJWaICBLoS1D5a-38" value="" style="edgeStyle=none;rounded=0;orthogonalLoop=1;jettySize=auto;html=1;" edge="1" parent="1" source="SKfT4HgJWaICBLoS1D5a-28" target="SKfT4HgJWaICBLoS1D5a-37">
          <mxGeometry relative="1" as="geometry" />
        </mxCell>
        <mxCell id="SKfT4HgJWaICBLoS1D5a-28" value="F" style="ellipse;whiteSpace=wrap;html=1;aspect=fixed;" vertex="1" parent="1">
          <mxGeometry x="390" y="360" width="30" height="30" as="geometry" />
        </mxCell>
        <mxCell id="SKfT4HgJWaICBLoS1D5a-42" style="edgeStyle=none;rounded=0;orthogonalLoop=1;jettySize=auto;html=1;exitX=1;exitY=0;exitDx=0;exitDy=0;entryX=0;entryY=1;entryDx=0;entryDy=0;" edge="1" parent="1" source="SKfT4HgJWaICBLoS1D5a-30" target="SKfT4HgJWaICBLoS1D5a-37">
          <mxGeometry relative="1" as="geometry" />
        </mxCell>
        <mxCell id="SKfT4HgJWaICBLoS1D5a-30" value="G" style="ellipse;whiteSpace=wrap;html=1;aspect=fixed;" vertex="1" parent="1">
          <mxGeometry x="390" y="420" width="30" height="30" as="geometry" />
        </mxCell>
        <mxCell id="SKfT4HgJWaICBLoS1D5a-44" style="edgeStyle=none;rounded=0;orthogonalLoop=1;jettySize=auto;html=1;exitX=1;exitY=0;exitDx=0;exitDy=0;entryX=0;entryY=1;entryDx=0;entryDy=0;" edge="1" parent="1" source="SKfT4HgJWaICBLoS1D5a-32" target="SKfT4HgJWaICBLoS1D5a-39">
          <mxGeometry relative="1" as="geometry" />
        </mxCell>
        <mxCell id="SKfT4HgJWaICBLoS1D5a-32" value="H" style="ellipse;whiteSpace=wrap;html=1;aspect=fixed;" vertex="1" parent="1">
          <mxGeometry x="390" y="522" width="30" height="30" as="geometry" />
        </mxCell>
        <mxCell id="SKfT4HgJWaICBLoS1D5a-52" style="edgeStyle=none;rounded=0;orthogonalLoop=1;jettySize=auto;html=1;exitX=1;exitY=1;exitDx=0;exitDy=0;entryX=0;entryY=0.5;entryDx=0;entryDy=0;shadow=0;fillColor=#66FFFF;" edge="1" parent="1" source="SKfT4HgJWaICBLoS1D5a-34" target="SKfT4HgJWaICBLoS1D5a-49">
          <mxGeometry relative="1" as="geometry" />
        </mxCell>
        <mxCell id="SKfT4HgJWaICBLoS1D5a-34" value="I" style="ellipse;whiteSpace=wrap;html=1;aspect=fixed;" vertex="1" parent="1">
          <mxGeometry x="510" y="205" width="30" height="30" as="geometry" />
        </mxCell>
        <mxCell id="SKfT4HgJWaICBLoS1D5a-51" style="edgeStyle=none;rounded=0;orthogonalLoop=1;jettySize=auto;html=1;exitX=1;exitY=1;exitDx=0;exitDy=0;entryX=0;entryY=0.5;entryDx=0;entryDy=0;" edge="1" parent="1" source="SKfT4HgJWaICBLoS1D5a-37" target="SKfT4HgJWaICBLoS1D5a-47">
          <mxGeometry relative="1" as="geometry" />
        </mxCell>
        <mxCell id="SKfT4HgJWaICBLoS1D5a-37" value="J" style="ellipse;whiteSpace=wrap;html=1;aspect=fixed;" vertex="1" parent="1">
          <mxGeometry x="534" y="310" width="30" height="30" as="geometry" />
        </mxCell>
        <mxCell id="SKfT4HgJWaICBLoS1D5a-48" value="" style="edgeStyle=none;rounded=0;orthogonalLoop=1;jettySize=auto;html=1;" edge="1" parent="1" source="SKfT4HgJWaICBLoS1D5a-39" target="SKfT4HgJWaICBLoS1D5a-47">
          <mxGeometry relative="1" as="geometry" />
        </mxCell>
        <mxCell id="SKfT4HgJWaICBLoS1D5a-39" value="K" style="ellipse;whiteSpace=wrap;html=1;aspect=fixed;" vertex="1" parent="1">
          <mxGeometry x="510" y="440" width="30" height="30" as="geometry" />
        </mxCell>
        <mxCell id="SKfT4HgJWaICBLoS1D5a-50" value="" style="edgeStyle=none;rounded=0;orthogonalLoop=1;jettySize=auto;html=1;" edge="1" parent="1" source="SKfT4HgJWaICBLoS1D5a-47" target="SKfT4HgJWaICBLoS1D5a-49">
          <mxGeometry relative="1" as="geometry" />
        </mxCell>
        <mxCell id="SKfT4HgJWaICBLoS1D5a-47" value="K" style="ellipse;whiteSpace=wrap;html=1;aspect=fixed;" vertex="1" parent="1">
          <mxGeometry x="610" y="380" width="30" height="30" as="geometry" />
        </mxCell>
        <mxCell id="SKfT4HgJWaICBLoS1D5a-167" style="edgeStyle=none;rounded=0;orthogonalLoop=1;jettySize=auto;html=1;exitX=1;exitY=0.5;exitDx=0;exitDy=0;entryX=0;entryY=0.5;entryDx=0;entryDy=0;shadow=0;fontSize=10;strokeColor=#000000;fillColor=#000000;" edge="1" parent="1" source="SKfT4HgJWaICBLoS1D5a-49" target="SKfT4HgJWaICBLoS1D5a-166">
          <mxGeometry relative="1" as="geometry" />
        </mxCell>
        <mxCell id="SKfT4HgJWaICBLoS1D5a-49" value="K" style="ellipse;whiteSpace=wrap;html=1;aspect=fixed;" vertex="1" parent="1">
          <mxGeometry x="720" y="330" width="30" height="30" as="geometry" />
        </mxCell>
        <mxCell id="SKfT4HgJWaICBLoS1D5a-53" value="H = 0" style="shape=table;startSize=10;container=1;collapsible=0;childLayout=tableLayout;fontStyle=1;align=center;fontSize=10;" vertex="1" parent="1">
          <mxGeometry x="12.5" y="285" width="70" height="40" as="geometry" />
        </mxCell>
        <mxCell id="SKfT4HgJWaICBLoS1D5a-54" value="" style="shape=tableRow;horizontal=0;startSize=0;swimlaneHead=0;swimlaneBody=0;top=0;left=0;bottom=0;right=0;collapsible=0;dropTarget=0;fillColor=none;points=[[0,0.5],[1,0.5]];portConstraint=eastwest;" vertex="1" parent="SKfT4HgJWaICBLoS1D5a-53">
          <mxGeometry y="10" width="70" height="15" as="geometry" />
        </mxCell>
        <mxCell id="SKfT4HgJWaICBLoS1D5a-55" value="" style="shape=partialRectangle;html=1;whiteSpace=wrap;connectable=0;fillColor=none;top=0;left=0;bottom=0;right=0;overflow=hidden;" vertex="1" parent="SKfT4HgJWaICBLoS1D5a-54">
          <mxGeometry width="35" height="15" as="geometry">
            <mxRectangle width="35" height="15" as="alternateBounds" />
          </mxGeometry>
        </mxCell>
        <mxCell id="SKfT4HgJWaICBLoS1D5a-56" value="" style="shape=partialRectangle;html=1;whiteSpace=wrap;connectable=0;fillColor=none;top=0;left=0;bottom=0;right=0;overflow=hidden;" vertex="1" parent="SKfT4HgJWaICBLoS1D5a-54">
          <mxGeometry x="35" width="35" height="15" as="geometry">
            <mxRectangle width="35" height="15" as="alternateBounds" />
          </mxGeometry>
        </mxCell>
        <mxCell id="SKfT4HgJWaICBLoS1D5a-62" value="" style="shape=tableRow;horizontal=0;startSize=0;swimlaneHead=0;swimlaneBody=0;top=0;left=0;bottom=0;right=0;collapsible=0;dropTarget=0;fillColor=none;points=[[0,0.5],[1,0.5]];portConstraint=eastwest;" vertex="1" parent="SKfT4HgJWaICBLoS1D5a-53">
          <mxGeometry y="25" width="70" height="15" as="geometry" />
        </mxCell>
        <mxCell id="SKfT4HgJWaICBLoS1D5a-63" value="" style="shape=partialRectangle;html=1;whiteSpace=wrap;connectable=0;fillColor=none;top=0;left=0;bottom=0;right=0;overflow=hidden;" vertex="1" parent="SKfT4HgJWaICBLoS1D5a-62">
          <mxGeometry width="35" height="15" as="geometry">
            <mxRectangle width="35" height="15" as="alternateBounds" />
          </mxGeometry>
        </mxCell>
        <mxCell id="SKfT4HgJWaICBLoS1D5a-64" value="" style="shape=partialRectangle;html=1;whiteSpace=wrap;connectable=0;fillColor=none;top=0;left=0;bottom=0;right=0;overflow=hidden;" vertex="1" parent="SKfT4HgJWaICBLoS1D5a-62">
          <mxGeometry x="35" width="35" height="15" as="geometry">
            <mxRectangle width="35" height="15" as="alternateBounds" />
          </mxGeometry>
        </mxCell>
        <mxCell id="SKfT4HgJWaICBLoS1D5a-67" value="H = 0" style="shape=table;startSize=10;container=1;collapsible=0;childLayout=tableLayout;fontStyle=1;align=center;fontSize=10;" vertex="1" parent="1">
          <mxGeometry x="210" y="220" width="70" height="40" as="geometry" />
        </mxCell>
        <mxCell id="SKfT4HgJWaICBLoS1D5a-68" value="" style="shape=tableRow;horizontal=0;startSize=0;swimlaneHead=0;swimlaneBody=0;top=0;left=0;bottom=0;right=0;collapsible=0;dropTarget=0;fillColor=none;points=[[0,0.5],[1,0.5]];portConstraint=eastwest;" vertex="1" parent="SKfT4HgJWaICBLoS1D5a-67">
          <mxGeometry y="10" width="70" height="15" as="geometry" />
        </mxCell>
        <mxCell id="SKfT4HgJWaICBLoS1D5a-69" value="" style="shape=partialRectangle;html=1;whiteSpace=wrap;connectable=0;fillColor=none;top=0;left=0;bottom=0;right=0;overflow=hidden;" vertex="1" parent="SKfT4HgJWaICBLoS1D5a-68">
          <mxGeometry width="35" height="15" as="geometry">
            <mxRectangle width="35" height="15" as="alternateBounds" />
          </mxGeometry>
        </mxCell>
        <mxCell id="SKfT4HgJWaICBLoS1D5a-70" value="" style="shape=partialRectangle;html=1;whiteSpace=wrap;connectable=0;fillColor=none;top=0;left=0;bottom=0;right=0;overflow=hidden;" vertex="1" parent="SKfT4HgJWaICBLoS1D5a-68">
          <mxGeometry x="35" width="35" height="15" as="geometry">
            <mxRectangle width="35" height="15" as="alternateBounds" />
          </mxGeometry>
        </mxCell>
        <mxCell id="SKfT4HgJWaICBLoS1D5a-71" value="" style="shape=tableRow;horizontal=0;startSize=0;swimlaneHead=0;swimlaneBody=0;top=0;left=0;bottom=0;right=0;collapsible=0;dropTarget=0;fillColor=none;points=[[0,0.5],[1,0.5]];portConstraint=eastwest;" vertex="1" parent="SKfT4HgJWaICBLoS1D5a-67">
          <mxGeometry y="25" width="70" height="15" as="geometry" />
        </mxCell>
        <mxCell id="SKfT4HgJWaICBLoS1D5a-72" value="" style="shape=partialRectangle;html=1;whiteSpace=wrap;connectable=0;fillColor=none;top=0;left=0;bottom=0;right=0;overflow=hidden;" vertex="1" parent="SKfT4HgJWaICBLoS1D5a-71">
          <mxGeometry width="35" height="15" as="geometry">
            <mxRectangle width="35" height="15" as="alternateBounds" />
          </mxGeometry>
        </mxCell>
        <mxCell id="SKfT4HgJWaICBLoS1D5a-73" value="" style="shape=partialRectangle;html=1;whiteSpace=wrap;connectable=0;fillColor=none;top=0;left=0;bottom=0;right=0;overflow=hidden;" vertex="1" parent="SKfT4HgJWaICBLoS1D5a-71">
          <mxGeometry x="35" width="35" height="15" as="geometry">
            <mxRectangle width="35" height="15" as="alternateBounds" />
          </mxGeometry>
        </mxCell>
        <mxCell id="SKfT4HgJWaICBLoS1D5a-74" value="H = 0" style="shape=table;startSize=10;container=1;collapsible=0;childLayout=tableLayout;fontStyle=1;align=center;fontSize=10;" vertex="1" parent="1">
          <mxGeometry x="210" y="332.5" width="70" height="40" as="geometry" />
        </mxCell>
        <mxCell id="SKfT4HgJWaICBLoS1D5a-75" value="" style="shape=tableRow;horizontal=0;startSize=0;swimlaneHead=0;swimlaneBody=0;top=0;left=0;bottom=0;right=0;collapsible=0;dropTarget=0;fillColor=none;points=[[0,0.5],[1,0.5]];portConstraint=eastwest;" vertex="1" parent="SKfT4HgJWaICBLoS1D5a-74">
          <mxGeometry y="10" width="70" height="15" as="geometry" />
        </mxCell>
        <mxCell id="SKfT4HgJWaICBLoS1D5a-76" value="" style="shape=partialRectangle;html=1;whiteSpace=wrap;connectable=0;fillColor=none;top=0;left=0;bottom=0;right=0;overflow=hidden;" vertex="1" parent="SKfT4HgJWaICBLoS1D5a-75">
          <mxGeometry width="35" height="15" as="geometry">
            <mxRectangle width="35" height="15" as="alternateBounds" />
          </mxGeometry>
        </mxCell>
        <mxCell id="SKfT4HgJWaICBLoS1D5a-77" value="" style="shape=partialRectangle;html=1;whiteSpace=wrap;connectable=0;fillColor=none;top=0;left=0;bottom=0;right=0;overflow=hidden;" vertex="1" parent="SKfT4HgJWaICBLoS1D5a-75">
          <mxGeometry x="35" width="35" height="15" as="geometry">
            <mxRectangle width="35" height="15" as="alternateBounds" />
          </mxGeometry>
        </mxCell>
        <mxCell id="SKfT4HgJWaICBLoS1D5a-78" value="" style="shape=tableRow;horizontal=0;startSize=0;swimlaneHead=0;swimlaneBody=0;top=0;left=0;bottom=0;right=0;collapsible=0;dropTarget=0;fillColor=none;points=[[0,0.5],[1,0.5]];portConstraint=eastwest;" vertex="1" parent="SKfT4HgJWaICBLoS1D5a-74">
          <mxGeometry y="25" width="70" height="15" as="geometry" />
        </mxCell>
        <mxCell id="SKfT4HgJWaICBLoS1D5a-79" value="" style="shape=partialRectangle;html=1;whiteSpace=wrap;connectable=0;fillColor=none;top=0;left=0;bottom=0;right=0;overflow=hidden;" vertex="1" parent="SKfT4HgJWaICBLoS1D5a-78">
          <mxGeometry width="35" height="15" as="geometry">
            <mxRectangle width="35" height="15" as="alternateBounds" />
          </mxGeometry>
        </mxCell>
        <mxCell id="SKfT4HgJWaICBLoS1D5a-80" value="" style="shape=partialRectangle;html=1;whiteSpace=wrap;connectable=0;fillColor=none;top=0;left=0;bottom=0;right=0;overflow=hidden;" vertex="1" parent="SKfT4HgJWaICBLoS1D5a-78">
          <mxGeometry x="35" width="35" height="15" as="geometry">
            <mxRectangle width="35" height="15" as="alternateBounds" />
          </mxGeometry>
        </mxCell>
        <mxCell id="SKfT4HgJWaICBLoS1D5a-81" value="H = 0" style="shape=table;startSize=10;container=1;collapsible=0;childLayout=tableLayout;fontStyle=1;align=center;fontSize=10;" vertex="1" parent="1">
          <mxGeometry x="370" y="565" width="70" height="40" as="geometry" />
        </mxCell>
        <mxCell id="SKfT4HgJWaICBLoS1D5a-82" value="" style="shape=tableRow;horizontal=0;startSize=0;swimlaneHead=0;swimlaneBody=0;top=0;left=0;bottom=0;right=0;collapsible=0;dropTarget=0;fillColor=none;points=[[0,0.5],[1,0.5]];portConstraint=eastwest;" vertex="1" parent="SKfT4HgJWaICBLoS1D5a-81">
          <mxGeometry y="10" width="70" height="15" as="geometry" />
        </mxCell>
        <mxCell id="SKfT4HgJWaICBLoS1D5a-83" value="" style="shape=partialRectangle;html=1;whiteSpace=wrap;connectable=0;fillColor=none;top=0;left=0;bottom=0;right=0;overflow=hidden;" vertex="1" parent="SKfT4HgJWaICBLoS1D5a-82">
          <mxGeometry width="35" height="15" as="geometry">
            <mxRectangle width="35" height="15" as="alternateBounds" />
          </mxGeometry>
        </mxCell>
        <mxCell id="SKfT4HgJWaICBLoS1D5a-84" value="" style="shape=partialRectangle;html=1;whiteSpace=wrap;connectable=0;fillColor=none;top=0;left=0;bottom=0;right=0;overflow=hidden;" vertex="1" parent="SKfT4HgJWaICBLoS1D5a-82">
          <mxGeometry x="35" width="35" height="15" as="geometry">
            <mxRectangle width="35" height="15" as="alternateBounds" />
          </mxGeometry>
        </mxCell>
        <mxCell id="SKfT4HgJWaICBLoS1D5a-85" value="" style="shape=tableRow;horizontal=0;startSize=0;swimlaneHead=0;swimlaneBody=0;top=0;left=0;bottom=0;right=0;collapsible=0;dropTarget=0;fillColor=none;points=[[0,0.5],[1,0.5]];portConstraint=eastwest;" vertex="1" parent="SKfT4HgJWaICBLoS1D5a-81">
          <mxGeometry y="25" width="70" height="15" as="geometry" />
        </mxCell>
        <mxCell id="SKfT4HgJWaICBLoS1D5a-86" value="" style="shape=partialRectangle;html=1;whiteSpace=wrap;connectable=0;fillColor=none;top=0;left=0;bottom=0;right=0;overflow=hidden;" vertex="1" parent="SKfT4HgJWaICBLoS1D5a-85">
          <mxGeometry width="35" height="15" as="geometry">
            <mxRectangle width="35" height="15" as="alternateBounds" />
          </mxGeometry>
        </mxCell>
        <mxCell id="SKfT4HgJWaICBLoS1D5a-87" value="" style="shape=partialRectangle;html=1;whiteSpace=wrap;connectable=0;fillColor=none;top=0;left=0;bottom=0;right=0;overflow=hidden;" vertex="1" parent="SKfT4HgJWaICBLoS1D5a-85">
          <mxGeometry x="35" width="35" height="15" as="geometry">
            <mxRectangle width="35" height="15" as="alternateBounds" />
          </mxGeometry>
        </mxCell>
        <mxCell id="SKfT4HgJWaICBLoS1D5a-92" value="H = 0" style="shape=table;startSize=10;container=1;collapsible=0;childLayout=tableLayout;fontStyle=1;align=center;fontSize=10;" vertex="1" parent="1">
          <mxGeometry x="370" y="460" width="70" height="40" as="geometry" />
        </mxCell>
        <mxCell id="SKfT4HgJWaICBLoS1D5a-93" value="" style="shape=tableRow;horizontal=0;startSize=0;swimlaneHead=0;swimlaneBody=0;top=0;left=0;bottom=0;right=0;collapsible=0;dropTarget=0;fillColor=none;points=[[0,0.5],[1,0.5]];portConstraint=eastwest;" vertex="1" parent="SKfT4HgJWaICBLoS1D5a-92">
          <mxGeometry y="10" width="70" height="15" as="geometry" />
        </mxCell>
        <mxCell id="SKfT4HgJWaICBLoS1D5a-94" value="" style="shape=partialRectangle;html=1;whiteSpace=wrap;connectable=0;fillColor=none;top=0;left=0;bottom=0;right=0;overflow=hidden;" vertex="1" parent="SKfT4HgJWaICBLoS1D5a-93">
          <mxGeometry width="35" height="15" as="geometry">
            <mxRectangle width="35" height="15" as="alternateBounds" />
          </mxGeometry>
        </mxCell>
        <mxCell id="SKfT4HgJWaICBLoS1D5a-95" value="" style="shape=partialRectangle;html=1;whiteSpace=wrap;connectable=0;fillColor=none;top=0;left=0;bottom=0;right=0;overflow=hidden;" vertex="1" parent="SKfT4HgJWaICBLoS1D5a-93">
          <mxGeometry x="35" width="35" height="15" as="geometry">
            <mxRectangle width="35" height="15" as="alternateBounds" />
          </mxGeometry>
        </mxCell>
        <mxCell id="SKfT4HgJWaICBLoS1D5a-96" value="" style="shape=tableRow;horizontal=0;startSize=0;swimlaneHead=0;swimlaneBody=0;top=0;left=0;bottom=0;right=0;collapsible=0;dropTarget=0;fillColor=none;points=[[0,0.5],[1,0.5]];portConstraint=eastwest;" vertex="1" parent="SKfT4HgJWaICBLoS1D5a-92">
          <mxGeometry y="25" width="70" height="15" as="geometry" />
        </mxCell>
        <mxCell id="SKfT4HgJWaICBLoS1D5a-97" value="" style="shape=partialRectangle;html=1;whiteSpace=wrap;connectable=0;fillColor=none;top=0;left=0;bottom=0;right=0;overflow=hidden;" vertex="1" parent="SKfT4HgJWaICBLoS1D5a-96">
          <mxGeometry width="35" height="15" as="geometry">
            <mxRectangle width="35" height="15" as="alternateBounds" />
          </mxGeometry>
        </mxCell>
        <mxCell id="SKfT4HgJWaICBLoS1D5a-98" value="" style="shape=partialRectangle;html=1;whiteSpace=wrap;connectable=0;fillColor=none;top=0;left=0;bottom=0;right=0;overflow=hidden;" vertex="1" parent="SKfT4HgJWaICBLoS1D5a-96">
          <mxGeometry x="35" width="35" height="15" as="geometry">
            <mxRectangle width="35" height="15" as="alternateBounds" />
          </mxGeometry>
        </mxCell>
        <mxCell id="SKfT4HgJWaICBLoS1D5a-99" value="H = 0" style="shape=table;startSize=10;container=1;collapsible=0;childLayout=tableLayout;fontStyle=1;align=center;fontSize=10;" vertex="1" parent="1">
          <mxGeometry x="350" y="317.5" width="70" height="40" as="geometry" />
        </mxCell>
        <mxCell id="SKfT4HgJWaICBLoS1D5a-100" value="" style="shape=tableRow;horizontal=0;startSize=0;swimlaneHead=0;swimlaneBody=0;top=0;left=0;bottom=0;right=0;collapsible=0;dropTarget=0;fillColor=none;points=[[0,0.5],[1,0.5]];portConstraint=eastwest;" vertex="1" parent="SKfT4HgJWaICBLoS1D5a-99">
          <mxGeometry y="10" width="70" height="15" as="geometry" />
        </mxCell>
        <mxCell id="SKfT4HgJWaICBLoS1D5a-101" value="" style="shape=partialRectangle;html=1;whiteSpace=wrap;connectable=0;fillColor=none;top=0;left=0;bottom=0;right=0;overflow=hidden;" vertex="1" parent="SKfT4HgJWaICBLoS1D5a-100">
          <mxGeometry width="35" height="15" as="geometry">
            <mxRectangle width="35" height="15" as="alternateBounds" />
          </mxGeometry>
        </mxCell>
        <mxCell id="SKfT4HgJWaICBLoS1D5a-102" value="" style="shape=partialRectangle;html=1;whiteSpace=wrap;connectable=0;fillColor=none;top=0;left=0;bottom=0;right=0;overflow=hidden;" vertex="1" parent="SKfT4HgJWaICBLoS1D5a-100">
          <mxGeometry x="35" width="35" height="15" as="geometry">
            <mxRectangle width="35" height="15" as="alternateBounds" />
          </mxGeometry>
        </mxCell>
        <mxCell id="SKfT4HgJWaICBLoS1D5a-103" value="" style="shape=tableRow;horizontal=0;startSize=0;swimlaneHead=0;swimlaneBody=0;top=0;left=0;bottom=0;right=0;collapsible=0;dropTarget=0;fillColor=none;points=[[0,0.5],[1,0.5]];portConstraint=eastwest;" vertex="1" parent="SKfT4HgJWaICBLoS1D5a-99">
          <mxGeometry y="25" width="70" height="15" as="geometry" />
        </mxCell>
        <mxCell id="SKfT4HgJWaICBLoS1D5a-104" value="" style="shape=partialRectangle;html=1;whiteSpace=wrap;connectable=0;fillColor=none;top=0;left=0;bottom=0;right=0;overflow=hidden;" vertex="1" parent="SKfT4HgJWaICBLoS1D5a-103">
          <mxGeometry width="35" height="15" as="geometry">
            <mxRectangle width="35" height="15" as="alternateBounds" />
          </mxGeometry>
        </mxCell>
        <mxCell id="SKfT4HgJWaICBLoS1D5a-105" value="" style="shape=partialRectangle;html=1;whiteSpace=wrap;connectable=0;fillColor=none;top=0;left=0;bottom=0;right=0;overflow=hidden;" vertex="1" parent="SKfT4HgJWaICBLoS1D5a-103">
          <mxGeometry x="35" width="35" height="15" as="geometry">
            <mxRectangle width="35" height="15" as="alternateBounds" />
          </mxGeometry>
        </mxCell>
        <mxCell id="SKfT4HgJWaICBLoS1D5a-106" value="H = 0" style="shape=table;startSize=10;container=1;collapsible=0;childLayout=tableLayout;fontStyle=1;align=center;fontSize=10;" vertex="1" parent="1">
          <mxGeometry x="360" y="129" width="70" height="40" as="geometry" />
        </mxCell>
        <mxCell id="SKfT4HgJWaICBLoS1D5a-107" value="" style="shape=tableRow;horizontal=0;startSize=0;swimlaneHead=0;swimlaneBody=0;top=0;left=0;bottom=0;right=0;collapsible=0;dropTarget=0;fillColor=none;points=[[0,0.5],[1,0.5]];portConstraint=eastwest;" vertex="1" parent="SKfT4HgJWaICBLoS1D5a-106">
          <mxGeometry y="10" width="70" height="15" as="geometry" />
        </mxCell>
        <mxCell id="SKfT4HgJWaICBLoS1D5a-108" value="" style="shape=partialRectangle;html=1;whiteSpace=wrap;connectable=0;fillColor=none;top=0;left=0;bottom=0;right=0;overflow=hidden;" vertex="1" parent="SKfT4HgJWaICBLoS1D5a-107">
          <mxGeometry width="35" height="15" as="geometry">
            <mxRectangle width="35" height="15" as="alternateBounds" />
          </mxGeometry>
        </mxCell>
        <mxCell id="SKfT4HgJWaICBLoS1D5a-109" value="" style="shape=partialRectangle;html=1;whiteSpace=wrap;connectable=0;fillColor=none;top=0;left=0;bottom=0;right=0;overflow=hidden;" vertex="1" parent="SKfT4HgJWaICBLoS1D5a-107">
          <mxGeometry x="35" width="35" height="15" as="geometry">
            <mxRectangle width="35" height="15" as="alternateBounds" />
          </mxGeometry>
        </mxCell>
        <mxCell id="SKfT4HgJWaICBLoS1D5a-110" value="" style="shape=tableRow;horizontal=0;startSize=0;swimlaneHead=0;swimlaneBody=0;top=0;left=0;bottom=0;right=0;collapsible=0;dropTarget=0;fillColor=none;points=[[0,0.5],[1,0.5]];portConstraint=eastwest;" vertex="1" parent="SKfT4HgJWaICBLoS1D5a-106">
          <mxGeometry y="25" width="70" height="15" as="geometry" />
        </mxCell>
        <mxCell id="SKfT4HgJWaICBLoS1D5a-111" value="" style="shape=partialRectangle;html=1;whiteSpace=wrap;connectable=0;fillColor=none;top=0;left=0;bottom=0;right=0;overflow=hidden;" vertex="1" parent="SKfT4HgJWaICBLoS1D5a-110">
          <mxGeometry width="35" height="15" as="geometry">
            <mxRectangle width="35" height="15" as="alternateBounds" />
          </mxGeometry>
        </mxCell>
        <mxCell id="SKfT4HgJWaICBLoS1D5a-112" value="" style="shape=partialRectangle;html=1;whiteSpace=wrap;connectable=0;fillColor=none;top=0;left=0;bottom=0;right=0;overflow=hidden;" vertex="1" parent="SKfT4HgJWaICBLoS1D5a-110">
          <mxGeometry x="35" width="35" height="15" as="geometry">
            <mxRectangle width="35" height="15" as="alternateBounds" />
          </mxGeometry>
        </mxCell>
        <mxCell id="SKfT4HgJWaICBLoS1D5a-113" value="H = 0" style="shape=table;startSize=10;container=1;collapsible=0;childLayout=tableLayout;fontStyle=1;align=center;fontSize=10;" vertex="1" parent="1">
          <mxGeometry x="370" y="235" width="70" height="40" as="geometry" />
        </mxCell>
        <mxCell id="SKfT4HgJWaICBLoS1D5a-114" value="" style="shape=tableRow;horizontal=0;startSize=0;swimlaneHead=0;swimlaneBody=0;top=0;left=0;bottom=0;right=0;collapsible=0;dropTarget=0;fillColor=none;points=[[0,0.5],[1,0.5]];portConstraint=eastwest;" vertex="1" parent="SKfT4HgJWaICBLoS1D5a-113">
          <mxGeometry y="10" width="70" height="15" as="geometry" />
        </mxCell>
        <mxCell id="SKfT4HgJWaICBLoS1D5a-115" value="" style="shape=partialRectangle;html=1;whiteSpace=wrap;connectable=0;fillColor=none;top=0;left=0;bottom=0;right=0;overflow=hidden;" vertex="1" parent="SKfT4HgJWaICBLoS1D5a-114">
          <mxGeometry width="35" height="15" as="geometry">
            <mxRectangle width="35" height="15" as="alternateBounds" />
          </mxGeometry>
        </mxCell>
        <mxCell id="SKfT4HgJWaICBLoS1D5a-116" value="" style="shape=partialRectangle;html=1;whiteSpace=wrap;connectable=0;fillColor=none;top=0;left=0;bottom=0;right=0;overflow=hidden;" vertex="1" parent="SKfT4HgJWaICBLoS1D5a-114">
          <mxGeometry x="35" width="35" height="15" as="geometry">
            <mxRectangle width="35" height="15" as="alternateBounds" />
          </mxGeometry>
        </mxCell>
        <mxCell id="SKfT4HgJWaICBLoS1D5a-117" value="" style="shape=tableRow;horizontal=0;startSize=0;swimlaneHead=0;swimlaneBody=0;top=0;left=0;bottom=0;right=0;collapsible=0;dropTarget=0;fillColor=none;points=[[0,0.5],[1,0.5]];portConstraint=eastwest;" vertex="1" parent="SKfT4HgJWaICBLoS1D5a-113">
          <mxGeometry y="25" width="70" height="15" as="geometry" />
        </mxCell>
        <mxCell id="SKfT4HgJWaICBLoS1D5a-118" value="" style="shape=partialRectangle;html=1;whiteSpace=wrap;connectable=0;fillColor=none;top=0;left=0;bottom=0;right=0;overflow=hidden;" vertex="1" parent="SKfT4HgJWaICBLoS1D5a-117">
          <mxGeometry width="35" height="15" as="geometry">
            <mxRectangle width="35" height="15" as="alternateBounds" />
          </mxGeometry>
        </mxCell>
        <mxCell id="SKfT4HgJWaICBLoS1D5a-119" value="" style="shape=partialRectangle;html=1;whiteSpace=wrap;connectable=0;fillColor=none;top=0;left=0;bottom=0;right=0;overflow=hidden;" vertex="1" parent="SKfT4HgJWaICBLoS1D5a-117">
          <mxGeometry x="35" width="35" height="15" as="geometry">
            <mxRectangle width="35" height="15" as="alternateBounds" />
          </mxGeometry>
        </mxCell>
        <mxCell id="SKfT4HgJWaICBLoS1D5a-120" value="H = 0" style="shape=table;startSize=10;container=1;collapsible=0;childLayout=tableLayout;fontStyle=1;align=center;fontSize=10;" vertex="1" parent="1">
          <mxGeometry x="494" y="160" width="70" height="40" as="geometry" />
        </mxCell>
        <mxCell id="SKfT4HgJWaICBLoS1D5a-121" value="" style="shape=tableRow;horizontal=0;startSize=0;swimlaneHead=0;swimlaneBody=0;top=0;left=0;bottom=0;right=0;collapsible=0;dropTarget=0;fillColor=none;points=[[0,0.5],[1,0.5]];portConstraint=eastwest;" vertex="1" parent="SKfT4HgJWaICBLoS1D5a-120">
          <mxGeometry y="10" width="70" height="15" as="geometry" />
        </mxCell>
        <mxCell id="SKfT4HgJWaICBLoS1D5a-122" value="" style="shape=partialRectangle;html=1;whiteSpace=wrap;connectable=0;fillColor=none;top=0;left=0;bottom=0;right=0;overflow=hidden;" vertex="1" parent="SKfT4HgJWaICBLoS1D5a-121">
          <mxGeometry width="35" height="15" as="geometry">
            <mxRectangle width="35" height="15" as="alternateBounds" />
          </mxGeometry>
        </mxCell>
        <mxCell id="SKfT4HgJWaICBLoS1D5a-123" value="" style="shape=partialRectangle;html=1;whiteSpace=wrap;connectable=0;fillColor=none;top=0;left=0;bottom=0;right=0;overflow=hidden;" vertex="1" parent="SKfT4HgJWaICBLoS1D5a-121">
          <mxGeometry x="35" width="35" height="15" as="geometry">
            <mxRectangle width="35" height="15" as="alternateBounds" />
          </mxGeometry>
        </mxCell>
        <mxCell id="SKfT4HgJWaICBLoS1D5a-124" value="" style="shape=tableRow;horizontal=0;startSize=0;swimlaneHead=0;swimlaneBody=0;top=0;left=0;bottom=0;right=0;collapsible=0;dropTarget=0;fillColor=none;points=[[0,0.5],[1,0.5]];portConstraint=eastwest;" vertex="1" parent="SKfT4HgJWaICBLoS1D5a-120">
          <mxGeometry y="25" width="70" height="15" as="geometry" />
        </mxCell>
        <mxCell id="SKfT4HgJWaICBLoS1D5a-125" value="" style="shape=partialRectangle;html=1;whiteSpace=wrap;connectable=0;fillColor=none;top=0;left=0;bottom=0;right=0;overflow=hidden;" vertex="1" parent="SKfT4HgJWaICBLoS1D5a-124">
          <mxGeometry width="35" height="15" as="geometry">
            <mxRectangle width="35" height="15" as="alternateBounds" />
          </mxGeometry>
        </mxCell>
        <mxCell id="SKfT4HgJWaICBLoS1D5a-126" value="" style="shape=partialRectangle;html=1;whiteSpace=wrap;connectable=0;fillColor=none;top=0;left=0;bottom=0;right=0;overflow=hidden;" vertex="1" parent="SKfT4HgJWaICBLoS1D5a-124">
          <mxGeometry x="35" width="35" height="15" as="geometry">
            <mxRectangle width="35" height="15" as="alternateBounds" />
          </mxGeometry>
        </mxCell>
        <mxCell id="SKfT4HgJWaICBLoS1D5a-127" value="H = 0" style="shape=table;startSize=10;container=1;collapsible=0;childLayout=tableLayout;fontStyle=1;align=center;fontSize=10;" vertex="1" parent="1">
          <mxGeometry x="527" y="260" width="70" height="40" as="geometry" />
        </mxCell>
        <mxCell id="SKfT4HgJWaICBLoS1D5a-128" value="" style="shape=tableRow;horizontal=0;startSize=0;swimlaneHead=0;swimlaneBody=0;top=0;left=0;bottom=0;right=0;collapsible=0;dropTarget=0;fillColor=none;points=[[0,0.5],[1,0.5]];portConstraint=eastwest;" vertex="1" parent="SKfT4HgJWaICBLoS1D5a-127">
          <mxGeometry y="10" width="70" height="15" as="geometry" />
        </mxCell>
        <mxCell id="SKfT4HgJWaICBLoS1D5a-129" value="" style="shape=partialRectangle;html=1;whiteSpace=wrap;connectable=0;fillColor=none;top=0;left=0;bottom=0;right=0;overflow=hidden;" vertex="1" parent="SKfT4HgJWaICBLoS1D5a-128">
          <mxGeometry width="35" height="15" as="geometry">
            <mxRectangle width="35" height="15" as="alternateBounds" />
          </mxGeometry>
        </mxCell>
        <mxCell id="SKfT4HgJWaICBLoS1D5a-130" value="" style="shape=partialRectangle;html=1;whiteSpace=wrap;connectable=0;fillColor=none;top=0;left=0;bottom=0;right=0;overflow=hidden;" vertex="1" parent="SKfT4HgJWaICBLoS1D5a-128">
          <mxGeometry x="35" width="35" height="15" as="geometry">
            <mxRectangle width="35" height="15" as="alternateBounds" />
          </mxGeometry>
        </mxCell>
        <mxCell id="SKfT4HgJWaICBLoS1D5a-131" value="" style="shape=tableRow;horizontal=0;startSize=0;swimlaneHead=0;swimlaneBody=0;top=0;left=0;bottom=0;right=0;collapsible=0;dropTarget=0;fillColor=none;points=[[0,0.5],[1,0.5]];portConstraint=eastwest;" vertex="1" parent="SKfT4HgJWaICBLoS1D5a-127">
          <mxGeometry y="25" width="70" height="15" as="geometry" />
        </mxCell>
        <mxCell id="SKfT4HgJWaICBLoS1D5a-132" value="" style="shape=partialRectangle;html=1;whiteSpace=wrap;connectable=0;fillColor=none;top=0;left=0;bottom=0;right=0;overflow=hidden;" vertex="1" parent="SKfT4HgJWaICBLoS1D5a-131">
          <mxGeometry width="35" height="15" as="geometry">
            <mxRectangle width="35" height="15" as="alternateBounds" />
          </mxGeometry>
        </mxCell>
        <mxCell id="SKfT4HgJWaICBLoS1D5a-133" value="" style="shape=partialRectangle;html=1;whiteSpace=wrap;connectable=0;fillColor=none;top=0;left=0;bottom=0;right=0;overflow=hidden;" vertex="1" parent="SKfT4HgJWaICBLoS1D5a-131">
          <mxGeometry x="35" width="35" height="15" as="geometry">
            <mxRectangle width="35" height="15" as="alternateBounds" />
          </mxGeometry>
        </mxCell>
        <mxCell id="SKfT4HgJWaICBLoS1D5a-134" value="H = 0" style="shape=table;startSize=10;container=1;collapsible=0;childLayout=tableLayout;fontStyle=1;align=center;fontSize=10;" vertex="1" parent="1">
          <mxGeometry x="490" y="482" width="70" height="40" as="geometry" />
        </mxCell>
        <mxCell id="SKfT4HgJWaICBLoS1D5a-135" value="" style="shape=tableRow;horizontal=0;startSize=0;swimlaneHead=0;swimlaneBody=0;top=0;left=0;bottom=0;right=0;collapsible=0;dropTarget=0;fillColor=none;points=[[0,0.5],[1,0.5]];portConstraint=eastwest;" vertex="1" parent="SKfT4HgJWaICBLoS1D5a-134">
          <mxGeometry y="10" width="70" height="15" as="geometry" />
        </mxCell>
        <mxCell id="SKfT4HgJWaICBLoS1D5a-136" value="" style="shape=partialRectangle;html=1;whiteSpace=wrap;connectable=0;fillColor=none;top=0;left=0;bottom=0;right=0;overflow=hidden;" vertex="1" parent="SKfT4HgJWaICBLoS1D5a-135">
          <mxGeometry width="35" height="15" as="geometry">
            <mxRectangle width="35" height="15" as="alternateBounds" />
          </mxGeometry>
        </mxCell>
        <mxCell id="SKfT4HgJWaICBLoS1D5a-137" value="" style="shape=partialRectangle;html=1;whiteSpace=wrap;connectable=0;fillColor=none;top=0;left=0;bottom=0;right=0;overflow=hidden;" vertex="1" parent="SKfT4HgJWaICBLoS1D5a-135">
          <mxGeometry x="35" width="35" height="15" as="geometry">
            <mxRectangle width="35" height="15" as="alternateBounds" />
          </mxGeometry>
        </mxCell>
        <mxCell id="SKfT4HgJWaICBLoS1D5a-138" value="" style="shape=tableRow;horizontal=0;startSize=0;swimlaneHead=0;swimlaneBody=0;top=0;left=0;bottom=0;right=0;collapsible=0;dropTarget=0;fillColor=none;points=[[0,0.5],[1,0.5]];portConstraint=eastwest;" vertex="1" parent="SKfT4HgJWaICBLoS1D5a-134">
          <mxGeometry y="25" width="70" height="15" as="geometry" />
        </mxCell>
        <mxCell id="SKfT4HgJWaICBLoS1D5a-139" value="" style="shape=partialRectangle;html=1;whiteSpace=wrap;connectable=0;fillColor=none;top=0;left=0;bottom=0;right=0;overflow=hidden;" vertex="1" parent="SKfT4HgJWaICBLoS1D5a-138">
          <mxGeometry width="35" height="15" as="geometry">
            <mxRectangle width="35" height="15" as="alternateBounds" />
          </mxGeometry>
        </mxCell>
        <mxCell id="SKfT4HgJWaICBLoS1D5a-140" value="" style="shape=partialRectangle;html=1;whiteSpace=wrap;connectable=0;fillColor=none;top=0;left=0;bottom=0;right=0;overflow=hidden;" vertex="1" parent="SKfT4HgJWaICBLoS1D5a-138">
          <mxGeometry x="35" width="35" height="15" as="geometry">
            <mxRectangle width="35" height="15" as="alternateBounds" />
          </mxGeometry>
        </mxCell>
        <mxCell id="SKfT4HgJWaICBLoS1D5a-141" value="H = 0" style="shape=table;startSize=10;container=1;collapsible=0;childLayout=tableLayout;fontStyle=1;align=center;fontSize=10;" vertex="1" parent="1">
          <mxGeometry x="600" y="420" width="70" height="40" as="geometry" />
        </mxCell>
        <mxCell id="SKfT4HgJWaICBLoS1D5a-142" value="" style="shape=tableRow;horizontal=0;startSize=0;swimlaneHead=0;swimlaneBody=0;top=0;left=0;bottom=0;right=0;collapsible=0;dropTarget=0;fillColor=none;points=[[0,0.5],[1,0.5]];portConstraint=eastwest;" vertex="1" parent="SKfT4HgJWaICBLoS1D5a-141">
          <mxGeometry y="10" width="70" height="15" as="geometry" />
        </mxCell>
        <mxCell id="SKfT4HgJWaICBLoS1D5a-143" value="" style="shape=partialRectangle;html=1;whiteSpace=wrap;connectable=0;fillColor=none;top=0;left=0;bottom=0;right=0;overflow=hidden;" vertex="1" parent="SKfT4HgJWaICBLoS1D5a-142">
          <mxGeometry width="35" height="15" as="geometry">
            <mxRectangle width="35" height="15" as="alternateBounds" />
          </mxGeometry>
        </mxCell>
        <mxCell id="SKfT4HgJWaICBLoS1D5a-144" value="" style="shape=partialRectangle;html=1;whiteSpace=wrap;connectable=0;fillColor=none;top=0;left=0;bottom=0;right=0;overflow=hidden;" vertex="1" parent="SKfT4HgJWaICBLoS1D5a-142">
          <mxGeometry x="35" width="35" height="15" as="geometry">
            <mxRectangle width="35" height="15" as="alternateBounds" />
          </mxGeometry>
        </mxCell>
        <mxCell id="SKfT4HgJWaICBLoS1D5a-145" value="" style="shape=tableRow;horizontal=0;startSize=0;swimlaneHead=0;swimlaneBody=0;top=0;left=0;bottom=0;right=0;collapsible=0;dropTarget=0;fillColor=none;points=[[0,0.5],[1,0.5]];portConstraint=eastwest;" vertex="1" parent="SKfT4HgJWaICBLoS1D5a-141">
          <mxGeometry y="25" width="70" height="15" as="geometry" />
        </mxCell>
        <mxCell id="SKfT4HgJWaICBLoS1D5a-146" value="" style="shape=partialRectangle;html=1;whiteSpace=wrap;connectable=0;fillColor=none;top=0;left=0;bottom=0;right=0;overflow=hidden;" vertex="1" parent="SKfT4HgJWaICBLoS1D5a-145">
          <mxGeometry width="35" height="15" as="geometry">
            <mxRectangle width="35" height="15" as="alternateBounds" />
          </mxGeometry>
        </mxCell>
        <mxCell id="SKfT4HgJWaICBLoS1D5a-147" value="" style="shape=partialRectangle;html=1;whiteSpace=wrap;connectable=0;fillColor=none;top=0;left=0;bottom=0;right=0;overflow=hidden;" vertex="1" parent="SKfT4HgJWaICBLoS1D5a-145">
          <mxGeometry x="35" width="35" height="15" as="geometry">
            <mxRectangle width="35" height="15" as="alternateBounds" />
          </mxGeometry>
        </mxCell>
        <mxCell id="SKfT4HgJWaICBLoS1D5a-148" value="H = 0" style="shape=table;startSize=10;container=1;collapsible=0;childLayout=tableLayout;fontStyle=1;align=center;fontSize=10;" vertex="1" parent="1">
          <mxGeometry x="700" y="285" width="70" height="40" as="geometry" />
        </mxCell>
        <mxCell id="SKfT4HgJWaICBLoS1D5a-149" value="" style="shape=tableRow;horizontal=0;startSize=0;swimlaneHead=0;swimlaneBody=0;top=0;left=0;bottom=0;right=0;collapsible=0;dropTarget=0;fillColor=none;points=[[0,0.5],[1,0.5]];portConstraint=eastwest;" vertex="1" parent="SKfT4HgJWaICBLoS1D5a-148">
          <mxGeometry y="10" width="70" height="15" as="geometry" />
        </mxCell>
        <mxCell id="SKfT4HgJWaICBLoS1D5a-150" value="" style="shape=partialRectangle;html=1;whiteSpace=wrap;connectable=0;fillColor=none;top=0;left=0;bottom=0;right=0;overflow=hidden;" vertex="1" parent="SKfT4HgJWaICBLoS1D5a-149">
          <mxGeometry width="35" height="15" as="geometry">
            <mxRectangle width="35" height="15" as="alternateBounds" />
          </mxGeometry>
        </mxCell>
        <mxCell id="SKfT4HgJWaICBLoS1D5a-151" value="" style="shape=partialRectangle;html=1;whiteSpace=wrap;connectable=0;fillColor=none;top=0;left=0;bottom=0;right=0;overflow=hidden;" vertex="1" parent="SKfT4HgJWaICBLoS1D5a-149">
          <mxGeometry x="35" width="35" height="15" as="geometry">
            <mxRectangle width="35" height="15" as="alternateBounds" />
          </mxGeometry>
        </mxCell>
        <mxCell id="SKfT4HgJWaICBLoS1D5a-152" value="" style="shape=tableRow;horizontal=0;startSize=0;swimlaneHead=0;swimlaneBody=0;top=0;left=0;bottom=0;right=0;collapsible=0;dropTarget=0;fillColor=none;points=[[0,0.5],[1,0.5]];portConstraint=eastwest;" vertex="1" parent="SKfT4HgJWaICBLoS1D5a-148">
          <mxGeometry y="25" width="70" height="15" as="geometry" />
        </mxCell>
        <mxCell id="SKfT4HgJWaICBLoS1D5a-153" value="" style="shape=partialRectangle;html=1;whiteSpace=wrap;connectable=0;fillColor=none;top=0;left=0;bottom=0;right=0;overflow=hidden;" vertex="1" parent="SKfT4HgJWaICBLoS1D5a-152">
          <mxGeometry width="35" height="15" as="geometry">
            <mxRectangle width="35" height="15" as="alternateBounds" />
          </mxGeometry>
        </mxCell>
        <mxCell id="SKfT4HgJWaICBLoS1D5a-154" value="" style="shape=partialRectangle;html=1;whiteSpace=wrap;connectable=0;fillColor=none;top=0;left=0;bottom=0;right=0;overflow=hidden;" vertex="1" parent="SKfT4HgJWaICBLoS1D5a-152">
          <mxGeometry x="35" width="35" height="15" as="geometry">
            <mxRectangle width="35" height="15" as="alternateBounds" />
          </mxGeometry>
        </mxCell>
        <mxCell id="SKfT4HgJWaICBLoS1D5a-157" style="edgeStyle=none;rounded=0;orthogonalLoop=1;jettySize=auto;html=1;exitX=1;exitY=0.5;exitDx=0;exitDy=0;entryX=0;entryY=0.5;entryDx=0;entryDy=0;shadow=0;fontSize=10;strokeColor=#000000;fillColor=#000000;" edge="1" parent="1" source="SKfT4HgJWaICBLoS1D5a-155" target="SKfT4HgJWaICBLoS1D5a-9">
          <mxGeometry relative="1" as="geometry" />
        </mxCell>
        <mxCell id="SKfT4HgJWaICBLoS1D5a-155" value="Inicio" style="whiteSpace=wrap;html=1;" vertex="1" parent="1">
          <mxGeometry x="20" y="332.5" width="55" height="25" as="geometry" />
        </mxCell>
        <mxCell id="SKfT4HgJWaICBLoS1D5a-158" value="H = 0" style="shape=table;startSize=10;container=1;collapsible=0;childLayout=tableLayout;fontStyle=1;align=center;fontSize=10;" vertex="1" parent="1">
          <mxGeometry x="90" y="285" width="70" height="40" as="geometry" />
        </mxCell>
        <mxCell id="SKfT4HgJWaICBLoS1D5a-159" value="" style="shape=tableRow;horizontal=0;startSize=0;swimlaneHead=0;swimlaneBody=0;top=0;left=0;bottom=0;right=0;collapsible=0;dropTarget=0;fillColor=none;points=[[0,0.5],[1,0.5]];portConstraint=eastwest;" vertex="1" parent="SKfT4HgJWaICBLoS1D5a-158">
          <mxGeometry y="10" width="70" height="15" as="geometry" />
        </mxCell>
        <mxCell id="SKfT4HgJWaICBLoS1D5a-160" value="" style="shape=partialRectangle;html=1;whiteSpace=wrap;connectable=0;fillColor=none;top=0;left=0;bottom=0;right=0;overflow=hidden;" vertex="1" parent="SKfT4HgJWaICBLoS1D5a-159">
          <mxGeometry width="35" height="15" as="geometry">
            <mxRectangle width="35" height="15" as="alternateBounds" />
          </mxGeometry>
        </mxCell>
        <mxCell id="SKfT4HgJWaICBLoS1D5a-161" value="" style="shape=partialRectangle;html=1;whiteSpace=wrap;connectable=0;fillColor=none;top=0;left=0;bottom=0;right=0;overflow=hidden;" vertex="1" parent="SKfT4HgJWaICBLoS1D5a-159">
          <mxGeometry x="35" width="35" height="15" as="geometry">
            <mxRectangle width="35" height="15" as="alternateBounds" />
          </mxGeometry>
        </mxCell>
        <mxCell id="SKfT4HgJWaICBLoS1D5a-162" value="" style="shape=tableRow;horizontal=0;startSize=0;swimlaneHead=0;swimlaneBody=0;top=0;left=0;bottom=0;right=0;collapsible=0;dropTarget=0;fillColor=none;points=[[0,0.5],[1,0.5]];portConstraint=eastwest;" vertex="1" parent="SKfT4HgJWaICBLoS1D5a-158">
          <mxGeometry y="25" width="70" height="15" as="geometry" />
        </mxCell>
        <mxCell id="SKfT4HgJWaICBLoS1D5a-163" value="" style="shape=partialRectangle;html=1;whiteSpace=wrap;connectable=0;fillColor=none;top=0;left=0;bottom=0;right=0;overflow=hidden;" vertex="1" parent="SKfT4HgJWaICBLoS1D5a-162">
          <mxGeometry width="35" height="15" as="geometry">
            <mxRectangle width="35" height="15" as="alternateBounds" />
          </mxGeometry>
        </mxCell>
        <mxCell id="SKfT4HgJWaICBLoS1D5a-164" value="" style="shape=partialRectangle;html=1;whiteSpace=wrap;connectable=0;fillColor=none;top=0;left=0;bottom=0;right=0;overflow=hidden;" vertex="1" parent="SKfT4HgJWaICBLoS1D5a-162">
          <mxGeometry x="35" width="35" height="15" as="geometry">
            <mxRectangle width="35" height="15" as="alternateBounds" />
          </mxGeometry>
        </mxCell>
        <mxCell id="SKfT4HgJWaICBLoS1D5a-166" value="Fin" style="whiteSpace=wrap;html=1;" vertex="1" parent="1">
          <mxGeometry x="800" y="332.5" width="55" height="25" as="geometry" />
        </mxCell>
        <mxCell id="SKfT4HgJWaICBLoS1D5a-168" value="H = 0" style="shape=table;startSize=10;container=1;collapsible=0;childLayout=tableLayout;fontStyle=1;align=center;fontSize=10;" vertex="1" parent="1">
          <mxGeometry x="792.5" y="285" width="70" height="40" as="geometry" />
        </mxCell>
        <mxCell id="SKfT4HgJWaICBLoS1D5a-169" value="" style="shape=tableRow;horizontal=0;startSize=0;swimlaneHead=0;swimlaneBody=0;top=0;left=0;bottom=0;right=0;collapsible=0;dropTarget=0;fillColor=none;points=[[0,0.5],[1,0.5]];portConstraint=eastwest;" vertex="1" parent="SKfT4HgJWaICBLoS1D5a-168">
          <mxGeometry y="10" width="70" height="15" as="geometry" />
        </mxCell>
        <mxCell id="SKfT4HgJWaICBLoS1D5a-170" value="" style="shape=partialRectangle;html=1;whiteSpace=wrap;connectable=0;fillColor=none;top=0;left=0;bottom=0;right=0;overflow=hidden;" vertex="1" parent="SKfT4HgJWaICBLoS1D5a-169">
          <mxGeometry width="35" height="15" as="geometry">
            <mxRectangle width="35" height="15" as="alternateBounds" />
          </mxGeometry>
        </mxCell>
        <mxCell id="SKfT4HgJWaICBLoS1D5a-171" value="" style="shape=partialRectangle;html=1;whiteSpace=wrap;connectable=0;fillColor=none;top=0;left=0;bottom=0;right=0;overflow=hidden;" vertex="1" parent="SKfT4HgJWaICBLoS1D5a-169">
          <mxGeometry x="35" width="35" height="15" as="geometry">
            <mxRectangle width="35" height="15" as="alternateBounds" />
          </mxGeometry>
        </mxCell>
        <mxCell id="SKfT4HgJWaICBLoS1D5a-172" value="" style="shape=tableRow;horizontal=0;startSize=0;swimlaneHead=0;swimlaneBody=0;top=0;left=0;bottom=0;right=0;collapsible=0;dropTarget=0;fillColor=none;points=[[0,0.5],[1,0.5]];portConstraint=eastwest;" vertex="1" parent="SKfT4HgJWaICBLoS1D5a-168">
          <mxGeometry y="25" width="70" height="15" as="geometry" />
        </mxCell>
        <mxCell id="SKfT4HgJWaICBLoS1D5a-173" value="" style="shape=partialRectangle;html=1;whiteSpace=wrap;connectable=0;fillColor=none;top=0;left=0;bottom=0;right=0;overflow=hidden;" vertex="1" parent="SKfT4HgJWaICBLoS1D5a-172">
          <mxGeometry width="35" height="15" as="geometry">
            <mxRectangle width="35" height="15" as="alternateBounds" />
          </mxGeometry>
        </mxCell>
        <mxCell id="SKfT4HgJWaICBLoS1D5a-174" value="" style="shape=partialRectangle;html=1;whiteSpace=wrap;connectable=0;fillColor=none;top=0;left=0;bottom=0;right=0;overflow=hidden;" vertex="1" parent="SKfT4HgJWaICBLoS1D5a-172">
          <mxGeometry x="35" width="35" height="15" as="geometry">
            <mxRectangle width="35" height="15" as="alternateBounds" />
          </mxGeometry>
        </mxCell>
      </root>
    </mxGraphModel>
  </diagram>
</mxfile>
